<svg width="107" height="104" viewBox="0 0 107 104" fill="none" xmlns="http://www.w3.org/2000/svg">
<rect x="3.5" y="0.5" width="101" height="100.952" stroke="#0E387A"/>
<path d="M39.4863 45.2384C37.6171 43.0291 36.678 40.8444 36.669 38.6844C36.6597 36.4645 37.1619 34.5716 38.1753 33.0057C39.1886 31.3799 40.8329 30.0204 43.1084 28.9273C45.3836 27.7743 47.9612 27.1894 50.8411 27.1729L87.7405 26.9611C89.6005 26.9504 91.6397 26.7587 93.8582 26.386C96.1366 26.0129 97.7251 25.6438 98.6236 25.2786L98.6708 36.6185L97.7705 36.5337L97.7641 35.0037C97.7581 33.5637 97.243 32.3366 96.2188 31.3225C95.1943 30.2484 93.9919 29.6853 92.6117 29.6332L75.512 29.7313L75.7366 83.6409C75.8056 85.8005 76.7723 87.415 78.6368 88.4843C79.5388 88.9591 80.4997 89.1936 81.5197 89.1878L82.6897 89.181L82.6934 90.081L62.9838 90.1942L62.98 89.2942L64.15 89.2875C65.71 89.2785 67.0277 88.7309 68.1032 87.6447C69.2387 86.5582 69.8333 85.2648 69.887 83.7645L69.6621 29.7649L50.8524 29.8729C46.0525 29.9005 42.5789 31.4504 40.4317 34.5228C39.2982 36.0893 38.7351 37.7426 38.7423 39.4826C38.7493 41.1625 39.2367 42.9298 40.2044 44.7842L39.4863 45.2384Z" fill="#0E387A"/>
<path d="M36.8055 72.039H38.0535V72.999H17.0295V72.039H18.2775C19.9415 72.039 21.3495 71.463 22.5015 70.311C23.7175 69.095 24.3575 67.655 24.4215 65.991V12.711C24.3575 11.047 23.7175 9.63902 22.5015 8.48702C21.3495 7.33502 19.9415 6.75902 18.2775 6.75902H17.0295V5.79902H38.0535V6.75902H36.8055C35.1415 6.75902 33.7015 7.33502 32.4855 8.48702C31.3335 9.63902 30.7255 11.047 30.6615 12.711V65.991C30.6615 67.655 31.2695 69.095 32.4855 70.311C33.7015 71.463 35.1415 72.039 36.8055 72.039ZM103.334 87.399V88.359C100.902 88.935 98.4695 89.223 96.0375 89.223C85.5415 89.223 75.3655 83.975 65.5095 73.479L33.7335 39.591L56.3895 11.175C56.9015 10.535 57.1575 9.95902 57.1575 9.44702C57.1575 8.93502 57.0615 8.48702 56.8695 8.10302C56.3575 7.14302 55.4295 6.66302 54.0855 6.66302H53.1255V5.79902H73.3815V6.66302H72.9975C68.7735 6.66302 65.3175 8.16702 62.6295 11.175L40.2615 36.999L72.9015 71.847C77.1255 76.391 81.8615 80.103 87.1095 82.983C92.4215 85.927 97.8295 87.399 103.334 87.399Z" fill="#0E387A"/>
<path d="M7 40.9805H101V55.9732H7V40.9805Z" fill="white"/>
<g filter="url(#filter0_d_9_10)">
<path d="M5.37064 51.718L5.33164 50.548L10.8436 44.88H11.9486L7.93164 49.092L7.38564 49.677L5.37064 51.718ZM4.53864 53.98V44.88H5.50064V53.98H4.53864ZM11.0776 53.98L7.15164 49.456L7.80164 48.754L12.2216 53.98H11.0776ZM17.4288 54.058C16.7441 54.058 16.1071 53.9453 15.5178 53.72C14.9371 53.486 14.4301 53.161 13.9968 52.745C13.5721 52.3203 13.2384 51.8306 12.9958 51.276C12.7618 50.7126 12.6448 50.0973 12.6448 49.43C12.6448 48.7626 12.7618 48.1516 12.9958 47.597C13.2384 47.0336 13.5721 46.544 13.9968 46.128C14.4301 45.7033 14.9371 45.3783 15.5178 45.153C16.0984 44.919 16.7354 44.802 17.4288 44.802C18.1134 44.802 18.7461 44.919 19.3268 45.153C19.9074 45.3783 20.4101 45.699 20.8348 46.115C21.2681 46.531 21.6018 47.0206 21.8358 47.584C22.0784 48.1473 22.1998 48.7626 22.1998 49.43C22.1998 50.0973 22.0784 50.7126 21.8358 51.276C21.6018 51.8393 21.2681 52.329 20.8348 52.745C20.4101 53.161 19.9074 53.486 19.3268 53.72C18.7461 53.9453 18.1134 54.058 17.4288 54.058ZM17.4288 53.2C17.9748 53.2 18.4774 53.109 18.9368 52.927C19.4048 52.7363 19.8078 52.472 20.1458 52.134C20.4924 51.7873 20.7611 51.3886 20.9518 50.938C21.1424 50.4786 21.2378 49.976 21.2378 49.43C21.2378 48.884 21.1424 48.3856 20.9518 47.935C20.7611 47.4756 20.4924 47.077 20.1458 46.739C19.8078 46.3923 19.4048 46.128 18.9368 45.946C18.4774 45.7553 17.9748 45.66 17.4288 45.66C16.8828 45.66 16.3758 45.7553 15.9078 45.946C15.4398 46.128 15.0324 46.3923 14.6858 46.739C14.3478 47.077 14.0791 47.4756 13.8797 47.935C13.6891 48.3856 13.5938 48.884 13.5938 49.43C13.5938 49.9673 13.6891 50.4656 13.8797 50.925C14.0791 51.3843 14.3478 51.7873 14.6858 52.134C15.0324 52.472 15.4398 52.7363 15.9078 52.927C16.3758 53.109 16.8828 53.2 17.4288 53.2ZM26.6764 53.98L22.6464 44.88H23.6864L27.4564 53.447H26.8844L30.6804 44.88H31.6554L27.6254 53.98H26.6764ZM31.2408 53.98L35.4008 44.88H36.3498L40.5098 53.98H39.4958L35.6738 45.439H36.0638L32.2418 53.98H31.2408ZM32.8788 51.549L33.1648 50.769H38.4558L38.7418 51.549H32.8788ZM35.0368 44.139L36.8178 42.527H38.0528L35.9468 44.139H35.0368ZM45.8403 54.058C45.1556 54.058 44.5229 53.9453 43.9423 53.72C43.3616 53.486 42.8589 53.161 42.4343 52.745C42.0096 52.329 41.6759 51.8393 41.4333 51.276C41.1993 50.7126 41.0823 50.0973 41.0823 49.43C41.0823 48.7626 41.1993 48.1473 41.4333 47.584C41.6759 47.0206 42.0096 46.531 42.4343 46.115C42.8676 45.699 43.3746 45.3783 43.9553 45.153C44.5359 44.919 45.1686 44.802 45.8533 44.802C46.5119 44.802 47.1316 44.9146 47.7123 45.14C48.2929 45.3566 48.7826 45.686 49.1813 46.128L48.5703 46.739C48.1976 46.3576 47.7859 46.0846 47.3353 45.92C46.8846 45.7466 46.3993 45.66 45.8793 45.66C45.3333 45.66 44.8263 45.7553 44.3583 45.946C43.8903 46.128 43.4829 46.3923 43.1363 46.739C42.7896 47.077 42.5166 47.4756 42.3172 47.935C42.1266 48.3856 42.0312 48.884 42.0312 49.43C42.0312 49.976 42.1266 50.4786 42.3172 50.938C42.5166 51.3886 42.7896 51.7873 43.1363 52.134C43.4829 52.472 43.8903 52.7363 44.3583 52.927C44.8263 53.109 45.3333 53.2 45.8793 53.2C46.3993 53.2 46.8846 53.1133 47.3353 52.94C47.7859 52.7666 48.1976 52.4893 48.5703 52.108L49.1813 52.719C48.7826 53.161 48.2929 53.4946 47.7123 53.72C47.1316 53.9453 46.5076 54.058 45.8403 54.058ZM53.7156 54.058C53.0396 54.058 52.3896 53.9496 51.7656 53.733C51.1503 53.5076 50.6736 53.2216 50.3356 52.875L50.7126 52.134C51.0333 52.446 51.4623 52.7103 51.9996 52.927C52.5456 53.135 53.1176 53.239 53.7156 53.239C54.2876 53.239 54.7513 53.1696 55.1066 53.031C55.4706 52.8836 55.7349 52.6886 55.8996 52.446C56.0729 52.2033 56.1596 51.9346 56.1596 51.64C56.1596 51.2846 56.0556 50.9986 55.8476 50.782C55.6483 50.5653 55.3839 50.3963 55.0546 50.275C54.7253 50.145 54.3613 50.0323 53.9626 49.937C53.5639 49.8416 53.1653 49.742 52.7666 49.638C52.3679 49.5253 51.9996 49.378 51.6616 49.196C51.3323 49.014 51.0636 48.7756 50.8556 48.481C50.6563 48.1776 50.5566 47.7833 50.5566 47.298C50.5566 46.8473 50.6736 46.4356 50.9076 46.063C51.1503 45.6816 51.5186 45.3783 52.0126 45.153C52.5066 44.919 53.1393 44.802 53.9106 44.802C54.4219 44.802 54.9289 44.8756 55.4316 45.023C55.9343 45.1616 56.3676 45.3566 56.7316 45.608L56.4066 46.375C56.0166 46.115 55.6006 45.9243 55.1586 45.803C54.7253 45.6816 54.3049 45.621 53.8976 45.621C53.3516 45.621 52.9009 45.6946 52.5456 45.842C52.1903 45.9893 51.9259 46.1886 51.7526 46.44C51.5879 46.6826 51.5056 46.96 51.5056 47.272C51.5056 47.6273 51.6053 47.9133 51.8046 48.13C52.0126 48.3466 52.2813 48.5156 52.6106 48.637C52.9486 48.7583 53.3169 48.8666 53.7156 48.962C54.1143 49.0573 54.5086 49.1613 54.8986 49.274C55.2973 49.3866 55.6613 49.534 55.9906 49.716C56.3286 49.8893 56.5973 50.1233 56.7966 50.418C57.0046 50.7126 57.1086 51.0983 57.1086 51.575C57.1086 52.017 56.9873 52.4286 56.7446 52.81C56.5019 53.1826 56.1293 53.486 55.6266 53.72C55.1326 53.9453 54.4956 54.058 53.7156 54.058ZM64.375 53.98V45.712H61.177V44.88H68.535V45.712H65.337V53.98H64.375ZM70.0718 53.98V44.88H71.0338V53.98H70.0718ZM69.7078 44.139L71.4888 42.527H72.7238L70.6178 44.139H69.7078ZM73.9947 53.98V44.88H74.7877L78.9477 51.978H78.5317L82.6527 44.88H83.4457V53.98H82.5227V46.323H82.7437L78.9477 52.823H78.4927L74.6707 46.323H74.9177V53.98H73.9947ZM87.2687 48.949H92.0787V49.768H87.2687V48.949ZM87.3727 53.148H92.8457V53.98H86.4107V44.88H92.6507V45.712H87.3727V53.148ZM93.651 53.98L97.811 44.88H98.76L102.92 53.98H101.906L98.084 45.439H98.474L94.652 53.98H93.651ZM95.289 51.549L95.575 50.769H100.866L101.152 51.549H95.289Z" fill="#0E387A"/>
</g>
<defs>
<filter id="filter0_d_9_10" x="0.538635" y="42.5269" width="106.381" height="19.5312" filterUnits="userSpaceOnUse" color-interpolation-filters="sRGB">
<feFlood flood-opacity="0" result="BackgroundImageFix"/>
<feColorMatrix in="SourceAlpha" type="matrix" values="0 0 0 0 0 0 0 0 0 0 0 0 0 0 0 0 0 0 127 0" result="hardAlpha"/>
<feOffset dy="4"/>
<feGaussianBlur stdDeviation="2"/>
<feComposite in2="hardAlpha" operator="out"/>
<feColorMatrix type="matrix" values="0 0 0 0 0 0 0 0 0 0 0 0 0 0 0 0 0 0 0.25 0"/>
<feBlend mode="normal" in2="BackgroundImageFix" result="effect1_dropShadow_9_10"/>
<feBlend mode="normal" in="SourceGraphic" in2="effect1_dropShadow_9_10" result="shape"/>
</filter>
</defs>
</svg>
